<?xml version="1.0" encoding="UTF-8" standalone="no"?>
<!DOCTYPE svg PUBLIC "-//W3C//DTD SVG 1.1//EN"
 "http://www.w3.org/Graphics/SVG/1.1/DTD/svg11.dtd">
<!-- Generated by graphviz version 2.38.0 (20140413.2041)
 -->
<!-- Title: dependencies Pages: 1 -->
<svg width="1541pt" height="204pt"
 viewBox="0.00 0.00 1541.00 204.00" xmlns="http://www.w3.org/2000/svg" xmlns:xlink="http://www.w3.org/1999/xlink">
<g id="graph0" class="graph" transform="scale(1 1) rotate(0) translate(4 200)">
<title>dependencies</title>
<polygon fill="white" stroke="none" points="-4,4 -4,-200 1537,-200 1537,4 -4,4"/>
<g id="clust1" class="cluster"><title>cluster_AppModule</title>
<polygon fill="none" stroke="black" stroke-dasharray="1,5" points="8,-8 8,-188 485,-188 485,-8 8,-8"/>
</g>
<g id="clust2" class="cluster"><title>cluster_AppModule_declarations</title>
<polygon fill="none" stroke="black" points="355,-16 355,-68 477,-68 477,-16 355,-16"/>
</g>
<g id="clust4" class="cluster"><title>cluster_AppModule_imports</title>
<polygon fill="none" stroke="black" points="16,-16 16,-68 347,-68 347,-16 16,-16"/>
</g>
<g id="clust6" class="cluster"><title>cluster_AppModule_bootstrap</title>
<polygon fill="none" stroke="black" points="164,-128 164,-180 288,-180 288,-128 164,-128"/>
</g>
<g id="clust8" class="cluster"><title>cluster_HomeModule</title>
<polygon fill="none" stroke="black" stroke-dasharray="1,5" points="493,-8 493,-120 751,-120 751,-8 493,-8"/>
</g>
<g id="clust9" class="cluster"><title>cluster_HomeModule_declarations</title>
<polygon fill="none" stroke="black" points="611,-16 611,-68 743,-68 743,-16 611,-16"/>
</g>
<g id="clust11" class="cluster"><title>cluster_HomeModule_imports</title>
<polygon fill="none" stroke="black" points="501,-16 501,-68 603,-68 603,-16 501,-16"/>
</g>
<g id="clust15" class="cluster"><title>cluster_UserModule</title>
<polygon fill="none" stroke="black" stroke-dasharray="1,5" points="759,-8 759,-188 1525,-188 1525,-8 759,-8"/>
</g>
<g id="clust16" class="cluster"><title>cluster_UserModule_declarations</title>
<polygon fill="none" stroke="black" points="1243,-16 1243,-68 1517,-68 1517,-16 1243,-16"/>
</g>
<g id="clust19" class="cluster"><title>cluster_UserModule_imports</title>
<polygon fill="none" stroke="black" points="767,-16 767,-68 1235,-68 1235,-16 767,-16"/>
</g>
<g id="clust20" class="cluster"><title>cluster_UserModule_exports</title>
<polygon fill="none" stroke="black" points="1040,-128 1040,-180 1168,-180 1168,-128 1040,-128"/>
</g>
<!-- AppComponent -->
<g id="node1" class="node"><title>AppComponent</title>
<polygon fill="#ffffb3" stroke="black" points="468.94,-60 363.06,-60 363.06,-24 468.94,-24 468.94,-60"/>
<text text-anchor="middle" x="416" y="-37.8" font-family="Times,serif" font-size="14.00">AppComponent</text>
</g>
<!-- AppModule -->
<g id="node2" class="node"><title>AppModule</title>
<polygon fill="#8dd3c7" stroke="black" points="267.657,-112 264.657,-116 243.657,-116 240.657,-112 184.343,-112 184.343,-76 267.657,-76 267.657,-112"/>
<text text-anchor="middle" x="226" y="-89.8" font-family="Times,serif" font-size="14.00">AppModule</text>
</g>
<!-- AppComponent&#45;&gt;AppModule -->
<g id="edge1" class="edge"><title>AppComponent&#45;&gt;AppModule</title>
<path fill="none" stroke="black" d="M416,-60.1871C416,-75.1824 416,-94 416,-94 416,-94 277.696,-94 277.696,-94"/>
<polygon fill="black" stroke="black" points="277.696,-90.5001 267.696,-94 277.696,-97.5001 277.696,-90.5001"/>
</g>
<!-- AppComponent  -->
<g id="node6" class="node"><title>AppComponent </title>
<polygon fill="#80b1d3" stroke="black" points="280.439,-172 171.561,-172 171.561,-136 280.439,-136 280.439,-172"/>
<text text-anchor="middle" x="226" y="-149.8" font-family="Times,serif" font-size="14.00">AppComponent </text>
</g>
<!-- AppModule&#45;&gt;AppComponent  -->
<g id="edge5" class="edge"><title>AppModule&#45;&gt;AppComponent </title>
<path fill="none" stroke="black" stroke-dasharray="1,5" d="M226,-112.002C226,-112.002 226,-125.595 226,-125.595"/>
<polygon fill="black" stroke="black" points="222.5,-125.595 226,-135.595 229.5,-125.595 222.5,-125.595"/>
</g>
<!-- BrowserModule -->
<g id="node3" class="node"><title>BrowserModule</title>
<polygon fill="#8dd3c7" stroke="black" points="339.473,-60 336.473,-64 315.473,-64 312.473,-60 232.527,-60 232.527,-24 339.473,-24 339.473,-60"/>
<text text-anchor="middle" x="286" y="-37.8" font-family="Times,serif" font-size="14.00">BrowserModule</text>
</g>
<!-- BrowserModule&#45;&gt;AppModule -->
<g id="edge2" class="edge"><title>BrowserModule&#45;&gt;AppModule</title>
<path fill="none" stroke="black" d="M250.171,-60.1871C250.171,-60.1871 250.171,-65.7353 250.171,-65.7353"/>
<polygon fill="black" stroke="black" points="246.671,-65.7353 250.171,-75.7353 253.671,-65.7353 246.671,-65.7353"/>
</g>
<!-- RouterModule -->
<g id="node4" class="node"><title>RouterModule</title>
<polygon fill="#8dd3c7" stroke="black" points="214.653,-60 211.653,-64 190.653,-64 187.653,-60 117.347,-60 117.347,-24 214.653,-24 214.653,-60"/>
<text text-anchor="middle" x="166" y="-37.8" font-family="Times,serif" font-size="14.00">RouterModule</text>
</g>
<!-- RouterModule&#45;&gt;AppModule -->
<g id="edge3" class="edge"><title>RouterModule&#45;&gt;AppModule</title>
<path fill="none" stroke="black" d="M199.499,-60.1871C199.499,-60.1871 199.499,-65.7353 199.499,-65.7353"/>
<polygon fill="black" stroke="black" points="195.999,-65.7353 199.499,-75.7353 202.999,-65.7353 195.999,-65.7353"/>
</g>
<!-- appRoutes -->
<g id="node5" class="node"><title>appRoutes</title>
<polygon fill="#8dd3c7" stroke="black" points="99.6011,-60 96.6011,-64 75.6011,-64 72.6011,-60 24.3989,-60 24.3989,-24 99.6011,-24 99.6011,-60"/>
<text text-anchor="middle" x="62" y="-37.8" font-family="Times,serif" font-size="14.00">appRoutes</text>
</g>
<!-- appRoutes&#45;&gt;AppModule -->
<g id="edge4" class="edge"><title>appRoutes&#45;&gt;AppModule</title>
<path fill="none" stroke="black" d="M62,-60.1871C62,-75.1824 62,-94 62,-94 62,-94 174.192,-94 174.192,-94"/>
<polygon fill="black" stroke="black" points="174.192,-97.5001 184.192,-94 174.192,-90.5001 174.192,-97.5001"/>
</g>
<!-- HomeComponent -->
<g id="node7" class="node"><title>HomeComponent</title>
<polygon fill="#ffffb3" stroke="black" points="734.545,-60 619.455,-60 619.455,-24 734.545,-24 734.545,-60"/>
<text text-anchor="middle" x="677" y="-37.8" font-family="Times,serif" font-size="14.00">HomeComponent</text>
</g>
<!-- HomeModule -->
<g id="node8" class="node"><title>HomeModule</title>
<polygon fill="#8dd3c7" stroke="black" points="660.762,-112 657.762,-116 636.762,-116 633.762,-112 567.238,-112 567.238,-76 660.762,-76 660.762,-112"/>
<text text-anchor="middle" x="614" y="-89.8" font-family="Times,serif" font-size="14.00">HomeModule</text>
</g>
<!-- HomeComponent&#45;&gt;HomeModule -->
<g id="edge6" class="edge"><title>HomeComponent&#45;&gt;HomeModule</title>
<path fill="none" stroke="black" d="M640.054,-60.1871C640.054,-60.1871 640.054,-65.7353 640.054,-65.7353"/>
<polygon fill="black" stroke="black" points="636.554,-65.7353 640.054,-75.7353 643.554,-65.7353 636.554,-65.7353"/>
</g>
<!-- homeRoutes -->
<g id="node9" class="node"><title>homeRoutes</title>
<polygon fill="#8dd3c7" stroke="black" points="594.992,-60 591.992,-64 570.992,-64 567.992,-60 509.008,-60 509.008,-24 594.992,-24 594.992,-60"/>
<text text-anchor="middle" x="552" y="-37.8" font-family="Times,serif" font-size="14.00">homeRoutes</text>
</g>
<!-- homeRoutes&#45;&gt;HomeModule -->
<g id="edge7" class="edge"><title>homeRoutes&#45;&gt;HomeModule</title>
<path fill="none" stroke="black" d="M581.058,-60.1871C581.058,-60.1871 581.058,-65.7353 581.058,-65.7353"/>
<polygon fill="black" stroke="black" points="577.558,-65.7353 581.058,-75.7353 584.558,-65.7353 577.558,-65.7353"/>
</g>
<!-- UserComponent -->
<g id="node10" class="node"><title>UserComponent</title>
<polygon fill="#ffffb3" stroke="black" points="1508.76,-60 1401.24,-60 1401.24,-24 1508.76,-24 1508.76,-60"/>
<text text-anchor="middle" x="1455" y="-37.8" font-family="Times,serif" font-size="14.00">UserComponent</text>
</g>
<!-- UserModule -->
<g id="node12" class="node"><title>UserModule</title>
<polygon fill="#8dd3c7" stroke="black" points="1146.98,-112 1143.98,-116 1122.98,-116 1119.98,-112 1061.02,-112 1061.02,-76 1146.98,-76 1146.98,-112"/>
<text text-anchor="middle" x="1104" y="-89.8" font-family="Times,serif" font-size="14.00">UserModule</text>
</g>
<!-- UserComponent&#45;&gt;UserModule -->
<g id="edge8" class="edge"><title>UserComponent&#45;&gt;UserModule</title>
<path fill="none" stroke="black" d="M1455,-60.0336C1455,-77.0597 1455,-100 1455,-100 1455,-100 1157.04,-100 1157.04,-100"/>
<polygon fill="black" stroke="black" points="1157.04,-96.5001 1147.04,-100 1157.04,-103.5 1157.04,-96.5001"/>
</g>
<!-- AddUserComponent -->
<g id="node11" class="node"><title>AddUserComponent</title>
<polygon fill="#ffffb3" stroke="black" points="1382.87,-60 1251.13,-60 1251.13,-24 1382.87,-24 1382.87,-60"/>
<text text-anchor="middle" x="1317" y="-37.8" font-family="Times,serif" font-size="14.00">AddUserComponent</text>
</g>
<!-- AddUserComponent&#45;&gt;UserModule -->
<g id="edge9" class="edge"><title>AddUserComponent&#45;&gt;UserModule</title>
<path fill="none" stroke="black" d="M1317,-60.1804C1317,-73.0382 1317,-88 1317,-88 1317,-88 1157.1,-88 1157.1,-88"/>
<polygon fill="black" stroke="black" points="1157.1,-84.5001 1147.1,-88 1157.1,-91.5001 1157.1,-84.5001"/>
</g>
<!-- UserComponent  -->
<g id="node17" class="node"><title>UserComponent </title>
<polygon fill="#fb8072" stroke="black" points="1159.76,-172 1048.24,-172 1048.24,-136 1159.76,-136 1159.76,-172"/>
<text text-anchor="middle" x="1104" y="-149.8" font-family="Times,serif" font-size="14.00">UserComponent </text>
</g>
<!-- UserModule&#45;&gt;UserComponent  -->
<g id="edge14" class="edge"><title>UserModule&#45;&gt;UserComponent </title>
<path fill="none" stroke="black" stroke-dasharray="5,2" d="M1104,-112.002C1104,-112.002 1104,-125.595 1104,-125.595"/>
<polygon fill="black" stroke="black" points="1100.5,-125.595 1104,-135.595 1107.5,-125.595 1100.5,-125.595"/>
</g>
<!-- CommonModule -->
<g id="node13" class="node"><title>CommonModule</title>
<polygon fill="#8dd3c7" stroke="black" points="1226.67,-60 1223.67,-64 1202.67,-64 1199.67,-60 1115.33,-60 1115.33,-24 1226.67,-24 1226.67,-60"/>
<text text-anchor="middle" x="1171" y="-37.8" font-family="Times,serif" font-size="14.00">CommonModule</text>
</g>
<!-- CommonModule&#45;&gt;UserModule -->
<g id="edge10" class="edge"><title>CommonModule&#45;&gt;UserModule</title>
<path fill="none" stroke="black" d="M1131.08,-60.1871C1131.08,-60.1871 1131.08,-65.7353 1131.08,-65.7353"/>
<polygon fill="black" stroke="black" points="1127.58,-65.7353 1131.08,-75.7353 1134.58,-65.7353 1127.58,-65.7353"/>
</g>
<!-- PaginationModule -->
<g id="node14" class="node"><title>PaginationModule</title>
<polygon fill="#8dd3c7" stroke="black" points="1096.93,-60 1093.93,-64 1072.93,-64 1069.93,-60 977.066,-60 977.066,-24 1096.93,-24 1096.93,-60"/>
<text text-anchor="middle" x="1037" y="-37.8" font-family="Times,serif" font-size="14.00">PaginationModule</text>
</g>
<!-- PaginationModule&#45;&gt;UserModule -->
<g id="edge11" class="edge"><title>PaginationModule&#45;&gt;UserModule</title>
<path fill="none" stroke="black" d="M1078.86,-60.1871C1078.86,-60.1871 1078.86,-65.7353 1078.86,-65.7353"/>
<polygon fill="black" stroke="black" points="1075.36,-65.7353 1078.86,-75.7353 1082.36,-65.7353 1075.36,-65.7353"/>
</g>
<!-- AlertModule -->
<g id="node15" class="node"><title>AlertModule</title>
<polygon fill="#8dd3c7" stroke="black" points="959.313,-60 956.313,-64 935.313,-64 932.313,-60 870.687,-60 870.687,-24 959.313,-24 959.313,-60"/>
<text text-anchor="middle" x="915" y="-37.8" font-family="Times,serif" font-size="14.00">AlertModule</text>
</g>
<!-- AlertModule&#45;&gt;UserModule -->
<g id="edge12" class="edge"><title>AlertModule&#45;&gt;UserModule</title>
<path fill="none" stroke="black" d="M915,-60.1804C915,-73.0382 915,-88 915,-88 915,-88 1050.64,-88 1050.64,-88"/>
<polygon fill="black" stroke="black" points="1050.64,-91.5001 1060.64,-88 1050.64,-84.5001 1050.64,-91.5001"/>
</g>
<!-- userRoutes -->
<g id="node16" class="node"><title>userRoutes</title>
<polygon fill="#8dd3c7" stroke="black" points="853.206,-60 850.206,-64 829.206,-64 826.206,-60 774.794,-60 774.794,-24 853.206,-24 853.206,-60"/>
<text text-anchor="middle" x="814" y="-37.8" font-family="Times,serif" font-size="14.00">userRoutes</text>
</g>
<!-- userRoutes&#45;&gt;UserModule -->
<g id="edge13" class="edge"><title>userRoutes&#45;&gt;UserModule</title>
<path fill="none" stroke="black" d="M814,-60.0336C814,-77.0597 814,-100 814,-100 814,-100 1050.9,-100 1050.9,-100"/>
<polygon fill="black" stroke="black" points="1050.9,-103.5 1060.9,-100 1050.9,-96.5001 1050.9,-103.5"/>
</g>
</g>
</svg>
