<?xml version="1.0" encoding="UTF-8" standalone="no"?>
<!DOCTYPE svg PUBLIC "-//W3C//DTD SVG 1.1//EN"
 "http://www.w3.org/Graphics/SVG/1.1/DTD/svg11.dtd">
<!-- Generated by graphviz version 2.38.0 (20140413.2041)
 -->
<!-- Title: dependencies Pages: 1 -->
<svg width="3652pt" height="196pt"
 viewBox="0.00 0.00 3652.00 196.00" xmlns="http://www.w3.org/2000/svg" xmlns:xlink="http://www.w3.org/1999/xlink">
<g id="graph0" class="graph" transform="scale(1 1) rotate(0) translate(4 192)">
<title>dependencies</title>
<polygon fill="white" stroke="none" points="-4,4 -4,-192 3648,-192 3648,4 -4,4"/>
<g id="clust1" class="cluster"><title>cluster_AppModule</title>
<polygon fill="none" stroke="black" stroke-dasharray="1,5" points="8,-8 8,-180 3636,-180 3636,-8 8,-8"/>
</g>
<g id="clust2" class="cluster"><title>cluster_AppModule_declarations</title>
<polygon fill="none" stroke="black" points="785,-16 785,-68 3628,-68 3628,-16 785,-16"/>
</g>
<g id="clust21" class="cluster"><title>cluster_AppModule_imports</title>
<polygon fill="none" stroke="black" points="202,-16 202,-68 777,-68 777,-16 202,-16"/>
</g>
<g id="clust23" class="cluster"><title>cluster_AppModule_bootstrap</title>
<polygon fill="none" stroke="black" points="1701,-120 1701,-172 1825,-172 1825,-120 1701,-120"/>
</g>
<g id="clust24" class="cluster"><title>cluster_AppModule_providers</title>
<polygon fill="none" stroke="black" points="16,-16 16,-68 194,-68 194,-16 16,-16"/>
</g>
<!-- AppComponent -->
<g id="node1" class="node"><title>AppComponent</title>
<polygon fill="#ffffb3" stroke="black" points="3619.94,-60 3514.06,-60 3514.06,-24 3619.94,-24 3619.94,-60"/>
<text text-anchor="middle" x="3567" y="-37.8" font-family="Times,serif" font-size="14.00">AppComponent</text>
</g>
<!-- AppModule -->
<g id="node19" class="node"><title>AppModule</title>
<polygon fill="#8dd3c7" stroke="black" points="1804.66,-112 1801.66,-116 1780.66,-116 1777.66,-112 1721.34,-112 1721.34,-76 1804.66,-76 1804.66,-112"/>
<text text-anchor="middle" x="1763" y="-89.8" font-family="Times,serif" font-size="14.00">AppModule</text>
</g>
<!-- AppComponent&#45;&gt;AppModule -->
<g id="edge1" class="edge"><title>AppComponent&#45;&gt;AppModule</title>
<path fill="none" stroke="black" d="M3567,-60.308C3567,-80.1455 3567,-109 3567,-109 3567,-109 1814.94,-109 1814.94,-109"/>
<polygon fill="black" stroke="black" points="1814.94,-105.5 1804.94,-109 1814.94,-112.5 1814.94,-105.5"/>
</g>
<!-- UserLoginComponent -->
<g id="node2" class="node"><title>UserLoginComponent</title>
<polygon fill="#ffffb3" stroke="black" points="3496.7,-60 3355.3,-60 3355.3,-24 3496.7,-24 3496.7,-60"/>
<text text-anchor="middle" x="3426" y="-37.8" font-family="Times,serif" font-size="14.00">UserLoginComponent</text>
</g>
<!-- UserLoginComponent&#45;&gt;AppModule -->
<g id="edge2" class="edge"><title>UserLoginComponent&#45;&gt;AppModule</title>
<path fill="none" stroke="black" d="M3426,-60.1686C3426,-79.0898 3426,-106 3426,-106 3426,-106 1814.94,-106 1814.94,-106"/>
<polygon fill="black" stroke="black" points="1814.94,-102.5 1804.94,-106 1814.94,-109.5 1814.94,-102.5"/>
</g>
<!-- UserRegisterComponent -->
<g id="node3" class="node"><title>UserRegisterComponent</title>
<polygon fill="#ffffb3" stroke="black" points="3337.41,-60 3182.59,-60 3182.59,-24 3337.41,-24 3337.41,-60"/>
<text text-anchor="middle" x="3260" y="-37.8" font-family="Times,serif" font-size="14.00">UserRegisterComponent</text>
</g>
<!-- UserRegisterComponent&#45;&gt;AppModule -->
<g id="edge3" class="edge"><title>UserRegisterComponent&#45;&gt;AppModule</title>
<path fill="none" stroke="black" d="M3260,-60.302C3260,-78.2699 3260,-103 3260,-103 3260,-103 1814.99,-103 1814.99,-103"/>
<polygon fill="black" stroke="black" points="1815,-99.5001 1804.99,-103 1814.99,-106.5 1815,-99.5001"/>
</g>
<!-- UserProfileComponent -->
<g id="node4" class="node"><title>UserProfileComponent</title>
<polygon fill="#ffffb3" stroke="black" points="3164.86,-60 3019.14,-60 3019.14,-24 3164.86,-24 3164.86,-60"/>
<text text-anchor="middle" x="3092" y="-37.8" font-family="Times,serif" font-size="14.00">UserProfileComponent</text>
</g>
<!-- UserProfileComponent&#45;&gt;AppModule -->
<g id="edge4" class="edge"><title>UserProfileComponent&#45;&gt;AppModule</title>
<path fill="none" stroke="black" d="M3092,-60.0336C3092,-77.0597 3092,-100 3092,-100 3092,-100 1814.97,-100 1814.97,-100"/>
<polygon fill="black" stroke="black" points="1814.97,-96.5001 1804.97,-100 1814.97,-103.5 1814.97,-96.5001"/>
</g>
<!-- UserMainComponent -->
<g id="node5" class="node"><title>UserMainComponent</title>
<polygon fill="#ffffb3" stroke="black" points="3000.81,-60 2863.19,-60 2863.19,-24 3000.81,-24 3000.81,-60"/>
<text text-anchor="middle" x="2932" y="-37.8" font-family="Times,serif" font-size="14.00">UserMainComponent</text>
</g>
<!-- UserMainComponent&#45;&gt;AppModule -->
<g id="edge5" class="edge"><title>UserMainComponent&#45;&gt;AppModule</title>
<path fill="none" stroke="black" d="M2932,-60.0091C2932,-76.0494 2932,-97 2932,-97 2932,-97 1814.95,-97 1814.95,-97"/>
<polygon fill="black" stroke="black" points="1814.95,-93.5001 1804.95,-97 1814.95,-100.5 1814.95,-93.5001"/>
</g>
<!-- UserInfoComponent -->
<g id="node6" class="node"><title>UserInfoComponent</title>
<polygon fill="#ffffb3" stroke="black" points="2845.58,-60 2714.42,-60 2714.42,-24 2845.58,-24 2845.58,-60"/>
<text text-anchor="middle" x="2780" y="-37.8" font-family="Times,serif" font-size="14.00">UserInfoComponent</text>
</g>
<!-- UserInfoComponent&#45;&gt;AppModule -->
<g id="edge6" class="edge"><title>UserInfoComponent&#45;&gt;AppModule</title>
<path fill="none" stroke="black" d="M2780,-60.1871C2780,-75.1824 2780,-94 2780,-94 2780,-94 1814.76,-94 1814.76,-94"/>
<polygon fill="black" stroke="black" points="1814.76,-90.5001 1804.76,-94 1814.76,-97.5001 1814.76,-90.5001"/>
</g>
<!-- PostlistComponent -->
<g id="node7" class="node"><title>PostlistComponent</title>
<polygon fill="#ffffb3" stroke="black" points="2696.07,-60 2573.93,-60 2573.93,-24 2696.07,-24 2696.07,-60"/>
<text text-anchor="middle" x="2635" y="-37.8" font-family="Times,serif" font-size="14.00">PostlistComponent</text>
</g>
<!-- PostlistComponent&#45;&gt;AppModule -->
<g id="edge7" class="edge"><title>PostlistComponent&#45;&gt;AppModule</title>
<path fill="none" stroke="black" d="M2635,-60.2458C2635,-74.1772 2635,-91 2635,-91 2635,-91 1814.76,-91 1814.76,-91"/>
<polygon fill="black" stroke="black" points="1814.76,-87.5001 1804.76,-91 1814.76,-94.5001 1814.76,-87.5001"/>
</g>
<!-- HomeComponent -->
<g id="node8" class="node"><title>HomeComponent</title>
<polygon fill="#ffffb3" stroke="black" points="2555.55,-60 2440.45,-60 2440.45,-24 2555.55,-24 2555.55,-60"/>
<text text-anchor="middle" x="2498" y="-37.8" font-family="Times,serif" font-size="14.00">HomeComponent</text>
</g>
<!-- HomeComponent&#45;&gt;AppModule -->
<g id="edge8" class="edge"><title>HomeComponent&#45;&gt;AppModule</title>
<path fill="none" stroke="black" d="M2498,-60.1804C2498,-73.0382 2498,-88 2498,-88 2498,-88 1814.89,-88 1814.89,-88"/>
<polygon fill="black" stroke="black" points="1814.89,-84.5001 1804.89,-88 1814.89,-91.5001 1814.89,-84.5001"/>
</g>
<!-- PostDetailMainComponent -->
<g id="node9" class="node"><title>PostDetailMainComponent</title>
<polygon fill="#ffffb3" stroke="black" points="2422.71,-60 2253.29,-60 2253.29,-24 2422.71,-24 2422.71,-60"/>
<text text-anchor="middle" x="2338" y="-37.8" font-family="Times,serif" font-size="14.00">PostDetailMainComponent</text>
</g>
<!-- PostDetailMainComponent&#45;&gt;AppModule -->
<g id="edge9" class="edge"><title>PostDetailMainComponent&#45;&gt;AppModule</title>
<path fill="none" stroke="black" d="M2338,-60.4854C2338,-72.1399 2338,-85 2338,-85 2338,-85 1814.82,-85 1814.82,-85"/>
<polygon fill="black" stroke="black" points="1814.82,-81.5001 1804.82,-85 1814.82,-88.5001 1814.82,-81.5001"/>
</g>
<!-- PostDetailComponent -->
<g id="node10" class="node"><title>PostDetailComponent</title>
<polygon fill="#ffffb3" stroke="black" points="2235.66,-60 2096.34,-60 2096.34,-24 2235.66,-24 2235.66,-60"/>
<text text-anchor="middle" x="2166" y="-37.8" font-family="Times,serif" font-size="14.00">PostDetailComponent</text>
</g>
<!-- PostDetailComponent&#45;&gt;AppModule -->
<g id="edge10" class="edge"><title>PostDetailComponent&#45;&gt;AppModule</title>
<path fill="none" stroke="black" d="M2166,-60.1274C2166,-70.7109 2166,-82 2166,-82 2166,-82 1814.99,-82 1814.99,-82"/>
<polygon fill="black" stroke="black" points="1814.99,-78.5001 1804.99,-82 1814.99,-85.5001 1814.99,-78.5001"/>
</g>
<!-- WritePostComponent -->
<g id="node11" class="node"><title>WritePostComponent</title>
<polygon fill="#ffffb3" stroke="black" points="2078.82,-60 1941.18,-60 1941.18,-24 2078.82,-24 2078.82,-60"/>
<text text-anchor="middle" x="2010" y="-37.8" font-family="Times,serif" font-size="14.00">WritePostComponent</text>
</g>
<!-- WritePostComponent&#45;&gt;AppModule -->
<g id="edge11" class="edge"><title>WritePostComponent&#45;&gt;AppModule</title>
<path fill="none" stroke="black" d="M2010,-60.0664C2010,-69.4587 2010,-79 2010,-79 2010,-79 1814.9,-79 1814.9,-79"/>
<polygon fill="black" stroke="black" points="1814.9,-75.5001 1804.9,-79 1814.9,-82.5001 1814.9,-75.5001"/>
</g>
<!-- AddCommentComponent -->
<g id="node12" class="node"><title>AddCommentComponent</title>
<polygon fill="#ffffb3" stroke="black" points="1923.16,-60 1762.84,-60 1762.84,-24 1923.16,-24 1923.16,-60"/>
<text text-anchor="middle" x="1843" y="-37.8" font-family="Times,serif" font-size="14.00">AddCommentComponent</text>
</g>
<!-- AddCommentComponent&#45;&gt;AppModule -->
<g id="edge12" class="edge"><title>AddCommentComponent&#45;&gt;AppModule</title>
<path fill="none" stroke="black" d="M1783.75,-60.1871C1783.75,-60.1871 1783.75,-65.7353 1783.75,-65.7353"/>
<polygon fill="black" stroke="black" points="1780.25,-65.7353 1783.75,-75.7353 1787.25,-65.7353 1780.25,-65.7353"/>
</g>
<!-- SitestatComponent -->
<g id="node13" class="node"><title>SitestatComponent</title>
<polygon fill="#ffffb3" stroke="black" points="1744.05,-60 1621.95,-60 1621.95,-24 1744.05,-24 1744.05,-60"/>
<text text-anchor="middle" x="1683" y="-37.8" font-family="Times,serif" font-size="14.00">SitestatComponent</text>
</g>
<!-- SitestatComponent&#45;&gt;AppModule -->
<g id="edge13" class="edge"><title>SitestatComponent&#45;&gt;AppModule</title>
<path fill="none" stroke="black" d="M1732.72,-60.1871C1732.72,-60.1871 1732.72,-65.7353 1732.72,-65.7353"/>
<polygon fill="black" stroke="black" points="1729.22,-65.7353 1732.72,-75.7353 1736.22,-65.7353 1729.22,-65.7353"/>
</g>
<!-- ManageMainComponent -->
<g id="node14" class="node"><title>ManageMainComponent</title>
<polygon fill="#ffffb3" stroke="black" points="1603.97,-60 1448.03,-60 1448.03,-24 1603.97,-24 1603.97,-60"/>
<text text-anchor="middle" x="1526" y="-37.8" font-family="Times,serif" font-size="14.00">ManageMainComponent</text>
</g>
<!-- ManageMainComponent&#45;&gt;AppModule -->
<g id="edge14" class="edge"><title>ManageMainComponent&#45;&gt;AppModule</title>
<path fill="none" stroke="black" d="M1526,-60.0664C1526,-69.4587 1526,-79 1526,-79 1526,-79 1711.17,-79 1711.17,-79"/>
<polygon fill="black" stroke="black" points="1711.17,-82.5001 1721.17,-79 1711.17,-75.5001 1711.17,-82.5001"/>
</g>
<!-- UserTableComponent -->
<g id="node15" class="node"><title>UserTableComponent</title>
<polygon fill="#ffffb3" stroke="black" points="1429.63,-60 1290.37,-60 1290.37,-24 1429.63,-24 1429.63,-60"/>
<text text-anchor="middle" x="1360" y="-37.8" font-family="Times,serif" font-size="14.00">UserTableComponent</text>
</g>
<!-- UserTableComponent&#45;&gt;AppModule -->
<g id="edge15" class="edge"><title>UserTableComponent&#45;&gt;AppModule</title>
<path fill="none" stroke="black" d="M1360,-60.1274C1360,-70.7109 1360,-82 1360,-82 1360,-82 1711.01,-82 1711.01,-82"/>
<polygon fill="black" stroke="black" points="1711.01,-85.5001 1721.01,-82 1711.01,-78.5001 1711.01,-85.5001"/>
</g>
<!-- PostTableComponent -->
<g id="node16" class="node"><title>PostTableComponent</title>
<polygon fill="#ffffb3" stroke="black" points="1272.82,-60 1135.18,-60 1135.18,-24 1272.82,-24 1272.82,-60"/>
<text text-anchor="middle" x="1204" y="-37.8" font-family="Times,serif" font-size="14.00">PostTableComponent</text>
</g>
<!-- PostTableComponent&#45;&gt;AppModule -->
<g id="edge16" class="edge"><title>PostTableComponent&#45;&gt;AppModule</title>
<path fill="none" stroke="black" d="M1204,-60.4854C1204,-72.1399 1204,-85 1204,-85 1204,-85 1710.98,-85 1710.98,-85"/>
<polygon fill="black" stroke="black" points="1710.98,-88.5001 1720.98,-85 1710.98,-81.5001 1710.98,-88.5001"/>
</g>
<!-- CommentTableComponent -->
<g id="node17" class="node"><title>CommentTableComponent</title>
<polygon fill="#ffffb3" stroke="black" points="1117.43,-60 948.572,-60 948.572,-24 1117.43,-24 1117.43,-60"/>
<text text-anchor="middle" x="1033" y="-37.8" font-family="Times,serif" font-size="14.00">CommentTableComponent</text>
</g>
<!-- CommentTableComponent&#45;&gt;AppModule -->
<g id="edge17" class="edge"><title>CommentTableComponent&#45;&gt;AppModule</title>
<path fill="none" stroke="black" d="M1033,-60.1804C1033,-73.0382 1033,-88 1033,-88 1033,-88 1711.13,-88 1711.13,-88"/>
<polygon fill="black" stroke="black" points="1711.13,-91.5001 1721.13,-88 1711.13,-84.5001 1711.13,-91.5001"/>
</g>
<!-- SysParamComponent -->
<g id="node18" class="node"><title>SysParamComponent</title>
<polygon fill="#ffffb3" stroke="black" points="930.823,-60 793.177,-60 793.177,-24 930.823,-24 930.823,-60"/>
<text text-anchor="middle" x="862" y="-37.8" font-family="Times,serif" font-size="14.00">SysParamComponent</text>
</g>
<!-- SysParamComponent&#45;&gt;AppModule -->
<g id="edge18" class="edge"><title>SysParamComponent&#45;&gt;AppModule</title>
<path fill="none" stroke="black" d="M862,-60.2458C862,-74.1772 862,-91 862,-91 862,-91 1711.05,-91 1711.05,-91"/>
<polygon fill="black" stroke="black" points="1711.05,-94.5001 1721.05,-91 1711.05,-87.5001 1711.05,-94.5001"/>
</g>
<!-- AppComponent  -->
<g id="node25" class="node"><title>AppComponent </title>
<polygon fill="#80b1d3" stroke="black" points="1817.44,-164 1708.56,-164 1708.56,-128 1817.44,-128 1817.44,-164"/>
<text text-anchor="middle" x="1763" y="-141.8" font-family="Times,serif" font-size="14.00">AppComponent </text>
</g>
<!-- AppModule&#45;&gt;AppComponent  -->
<g id="edge24" class="edge"><title>AppModule&#45;&gt;AppComponent </title>
<path fill="none" stroke="black" stroke-dasharray="1,5" d="M1763,-112.187C1763,-112.187 1763,-117.735 1763,-117.735"/>
<polygon fill="black" stroke="black" points="1759.5,-117.735 1763,-127.735 1766.5,-117.735 1759.5,-117.735"/>
</g>
<!-- BrowserModule -->
<g id="node20" class="node"><title>BrowserModule</title>
<polygon fill="#8dd3c7" stroke="black" points="769.473,-60 766.473,-64 745.473,-64 742.473,-60 662.527,-60 662.527,-24 769.473,-24 769.473,-60"/>
<text text-anchor="middle" x="716" y="-37.8" font-family="Times,serif" font-size="14.00">BrowserModule</text>
</g>
<!-- BrowserModule&#45;&gt;AppModule -->
<g id="edge19" class="edge"><title>BrowserModule&#45;&gt;AppModule</title>
<path fill="none" stroke="black" d="M716,-60.1871C716,-75.1824 716,-94 716,-94 716,-94 1711.31,-94 1711.31,-94"/>
<polygon fill="black" stroke="black" points="1711.31,-97.5001 1721.31,-94 1711.31,-90.5001 1711.31,-97.5001"/>
</g>
<!-- RouterModule -->
<g id="node21" class="node"><title>RouterModule</title>
<polygon fill="#8dd3c7" stroke="black" points="644.653,-60 641.653,-64 620.653,-64 617.653,-60 547.347,-60 547.347,-24 644.653,-24 644.653,-60"/>
<text text-anchor="middle" x="596" y="-37.8" font-family="Times,serif" font-size="14.00">RouterModule</text>
</g>
<!-- RouterModule&#45;&gt;AppModule -->
<g id="edge20" class="edge"><title>RouterModule&#45;&gt;AppModule</title>
<path fill="none" stroke="black" d="M596,-60.0091C596,-76.0494 596,-97 596,-97 596,-97 1711.12,-97 1711.12,-97"/>
<polygon fill="black" stroke="black" points="1711.12,-100.5 1721.12,-97 1711.12,-93.5001 1711.12,-100.5"/>
</g>
<!-- AlertModule -->
<g id="node22" class="node"><title>AlertModule</title>
<polygon fill="#8dd3c7" stroke="black" points="529.313,-60 526.313,-64 505.313,-64 502.313,-60 440.687,-60 440.687,-24 529.313,-24 529.313,-60"/>
<text text-anchor="middle" x="485" y="-37.8" font-family="Times,serif" font-size="14.00">AlertModule</text>
</g>
<!-- AlertModule&#45;&gt;AppModule -->
<g id="edge21" class="edge"><title>AlertModule&#45;&gt;AppModule</title>
<path fill="none" stroke="black" d="M485,-60.0336C485,-77.0597 485,-100 485,-100 485,-100 1711.21,-100 1711.21,-100"/>
<polygon fill="black" stroke="black" points="1711.21,-103.5 1721.21,-100 1711.21,-96.5001 1711.21,-103.5"/>
</g>
<!-- PaginationModule -->
<g id="node23" class="node"><title>PaginationModule</title>
<polygon fill="#8dd3c7" stroke="black" points="422.934,-60 419.934,-64 398.934,-64 395.934,-60 303.066,-60 303.066,-24 422.934,-24 422.934,-60"/>
<text text-anchor="middle" x="363" y="-37.8" font-family="Times,serif" font-size="14.00">PaginationModule</text>
</g>
<!-- PaginationModule&#45;&gt;AppModule -->
<g id="edge22" class="edge"><title>PaginationModule&#45;&gt;AppModule</title>
<path fill="none" stroke="black" d="M363,-60.302C363,-78.2699 363,-103 363,-103 363,-103 1711.1,-103 1711.1,-103"/>
<polygon fill="black" stroke="black" points="1711.1,-106.5 1721.1,-103 1711.1,-99.5001 1711.1,-106.5"/>
</g>
<!-- appRoutes -->
<g id="node24" class="node"><title>appRoutes</title>
<polygon fill="#8dd3c7" stroke="black" points="285.601,-60 282.601,-64 261.601,-64 258.601,-60 210.399,-60 210.399,-24 285.601,-24 285.601,-60"/>
<text text-anchor="middle" x="248" y="-37.8" font-family="Times,serif" font-size="14.00">appRoutes</text>
</g>
<!-- appRoutes&#45;&gt;AppModule -->
<g id="edge23" class="edge"><title>appRoutes&#45;&gt;AppModule</title>
<path fill="none" stroke="black" d="M248,-60.1686C248,-79.0898 248,-106 248,-106 248,-106 1711.3,-106 1711.3,-106"/>
<polygon fill="black" stroke="black" points="1711.3,-109.5 1721.3,-106 1711.3,-102.5 1711.3,-109.5"/>
</g>
<!-- UserLoginService -->
<g id="node26" class="node"><title>UserLoginService</title>
<ellipse fill="#fdb462" stroke="black" cx="105" cy="-42" rx="81.0782" ry="18"/>
<text text-anchor="middle" x="105" y="-37.8" font-family="Times,serif" font-size="14.00">UserLoginService</text>
</g>
<!-- UserLoginService&#45;&gt;AppModule -->
<g id="edge25" class="edge"><title>UserLoginService&#45;&gt;AppModule</title>
<path fill="none" stroke="black" d="M105,-60.308C105,-80.1455 105,-109 105,-109 105,-109 1711.19,-109 1711.19,-109"/>
<polygon fill="black" stroke="black" points="1711.19,-112.5 1721.19,-109 1711.19,-105.5 1711.19,-112.5"/>
</g>
</g>
</svg>
